<svg xmlns="http://www.w3.org/2000/svg" width="1230.64" height="861.022" viewBox="0 0 1230.64 861.022">
  <defs>
    <style>
      .cls-1 {
        fill: #f44e4e;
      }

      .cls-2 {
        fill: #fff;
      }

      .cls-3 {
        fill: #c4e8df;
      }

      .cls-4 {
        fill: #65c1ee;
      }

      .cls-5 {
        fill: #fdc510;
      }

      .cls-6 {
        fill: #a7adff;
      }

      .cls-7 {
        fill: #4b369d;
      }

      .cls-8 {
        fill: #d4a79a;
      }

      .cls-9 {
        fill: #eac2ab;
      }

      .cls-10 {
        fill: #f3aa02;
      }

      .cls-11 {
        fill: #488fb1;
      }

      .cls-12 {
        fill: #d7384e;
      }

      .cls-13 {
        fill: #65b0b1;
      }

      .cls-14 {
        fill: #e1fcff;
      }

      .cls-15 {
        fill: #007580;
      }

      .cls-16 {
        fill: #d2fcf8;
      }

      .cls-17 {
        fill: #73b8b7;
      }

      .cls-18 {
        fill: #b4f9f9;
      }
    </style>
  </defs>
  <g id="_7_Social_Media" data-name="7 Social Media" transform="translate(-284.473 -169.928)">
    <g id="Nature">
      <g id="Plant">
        <path id="Path_230" data-name="Path 230" class="cls-1" d="M577.55,846a27.6,27.6,0,0,0,2.42-9.53c2.03-30.74-30.18-25.75-49.25-34.71-17.81-8.37-18.56-27.78-19.83-44.9-1.69-22.92-3.22-39.15-19.01-57.47-33.71-39.12-25.76-81.85-43.62-127.28-11.54-29.35-38.72-52.1-68.55-62.82-8.84-3.18-19.13-5.58-29.97-2.38-19.71,5.81-30.29,26.86-28.64,42.25s11.17,27.91,14.06,42.91S331,627.75,312,636.33c-9.53,4.3-22.39,6.23-26.48,14.33-1.83,3.62-.96,7.2.32,10.31,5.66,13.8,18.79,23.52,23.78,37.55,5.88,16.54-1.54,29.14-7.79,44.26-2.8,6.79-4.24,14.92-.47,21.23,6.96,11.63,23.94,8.53,31.9,18.92,9.47,12.37-6.84,31.98-20.42,47.06s-24.88,37.97-9.04,44.8c4.93,2.13,11.39,1.88,17.18,2.7,26.02,3.66,34.87,27.14,40.69,48.14,6.28,22.64,30.65,30.01,47.12,43.4,18.57,15.09,24.5,44.69,55.52,31.73,21.24-8.87,30.9-31.49,42.93-49.43,13.18-19.66,27.21-39.09,35.58-61.42C549.34,873.31,570.32,862.21,577.55,846Z"/>
        <g id="Group_142" data-name="Group 142">
          <g id="Group_139" data-name="Group 139">
            <path id="Path_231" data-name="Path 231" class="cls-2" d="M462.63,1003.46a1.4,1.4,0,0,1-1.37-1.11L390.59,671.19a1.406,1.406,0,1,1,2.75-.59l70.67,331.16a1.406,1.406,0,0,1-1.08,1.67A1.534,1.534,0,0,1,462.63,1003.46Z"/>
          </g>
          <g id="Group_140" data-name="Group 140">
            <path id="Path_232" data-name="Path 232" class="cls-2" d="M417.61,785.9a2.1,2.1,0,0,1-.25-.02,1.4,1.4,0,0,1-1.13-1.63l12.64-70.39a1.4,1.4,0,0,1,2.76.5l-12.64,70.39A1.4,1.4,0,0,1,417.61,785.9Z"/>
          </g>
          <g id="Group_141" data-name="Group 141">
            <path id="Path_233" data-name="Path 233" class="cls-2" d="M442.68,909.93a1.4,1.4,0,0,1-1.15-.6l-38.37-55.16a1.408,1.408,0,0,1,2.31-1.61l38.37,55.16a1.411,1.411,0,0,1-.35,1.96A1.478,1.478,0,0,1,442.68,909.93Z"/>
          </g>
        </g>
      </g>
      <path id="Ground" class="cls-3" d="M514.37,0c284.079,0,514.37,6.738,514.37,15.05S798.449,30.1,514.37,30.1,0,23.362,0,15.05,230.291,0,514.37,0Z" transform="translate(482.51 1000.85)"/>
      <g id="Plant_1_">
        <path id="Path_234" data-name="Path 234" class="cls-4" d="M1115.36,955.59c-3.07-5.98-5.62-12.53-5.17-19.24.82-12.19,10.91-21.34,19.61-29.92s17.25-20.18,13.96-31.95c-3.16-11.31-15.49-16.83-25.93-22.2s-21.61-14.91-19.31-26.42c3.3-16.49,30.5-19.06,33.45-35.62,1.07-5.99-1.61-11.95-4.21-17.46l-26.67-56.37c-4.07-8.6-7.72-19.99-.91-26.63,4.59-4.47,11.8-4.37,17.81-6.57,15.6-5.72,20.28-24.98,23.86-41.21s11.92-35.35,28.49-36.55c6.38-.46,12.62,2.07,18.13,5.33,21.85,12.93,35.33,38.81,33.41,64.13-.82,10.84-3.92,22.94,2.48,31.73,3.33,4.57,8.61,7.2,13.27,10.39,17.84,12.19,27.7,35.1,24.28,56.43-2.33,14.56-10.09,30.06-3.25,43.12,7.66,14.61,29.59,17.1,36.86,31.9,5.99,12.18-.82,26.66-8.68,37.73s-17.37,22.56-17.03,36.13c.17,7.02,3.05,13.7,3.81,20.68,1.95,17.8-10,34.29-23.87,45.62-17.91,14.64-45.08,30.17-68.72,22.33C1153.97,1002,1128.34,980.87,1115.36,955.59Z"/>
        <g id="Group_143" data-name="Group 143">
          <path id="Path_235" data-name="Path 235" class="cls-2" d="M1203.35,1014.49a1.412,1.412,0,0,1-1.4-1.29l-21.62-267.78a1.408,1.408,0,0,1,1.29-1.51,1.37,1.37,0,0,1,1.51,1.29l21.62,267.78a1.408,1.408,0,0,1-1.29,1.51Z"/>
        </g>
        <g id="Group_144" data-name="Group 144">
          <path id="Path_236" data-name="Path 236" class="cls-2" d="M1188.04,824.76a1.406,1.406,0,0,1-1.1-2.28l37.98-47.4a1.406,1.406,0,0,1,2.2,1.75l-37.98,47.4A1.406,1.406,0,0,1,1188.04,824.76Z"/>
        </g>
        <g id="Group_145" data-name="Group 145">
          <path id="Path_237" data-name="Path 237" class="cls-2" d="M1197.11,917.16a1.406,1.406,0,0,1-1.1-2.28l37.98-47.4a1.406,1.406,0,0,1,2.2,1.75l-37.98,47.4A1.406,1.406,0,0,1,1197.11,917.16Z"/>
        </g>
        <g id="Group_146" data-name="Group 146">
          <path id="Path_238" data-name="Path 238" class="cls-2" d="M1192.54,880.6a1.4,1.4,0,0,1-.92-.34l-35.48-30.55a1.4,1.4,0,1,1,1.83-2.13l35.48,30.55a1.407,1.407,0,0,1,.15,1.98A1.382,1.382,0,0,1,1192.54,880.6Z"/>
        </g>
      </g>
      <g id="Plant_2_">
        <path id="Path_239" data-name="Path 239" class="cls-1" d="M1207.88,941.84c-1.9-3.94-3.85-8.11-3.51-12.47.48-6.09,5.25-10.9,10.03-14.71,10.87-8.67,23.38-15.35,33.09-25.31s16.33-24.72,11.62-37.8c-3.71-10.3-13.85-18.15-14.52-29.08-.9-14.47,14.62-23.84,21.91-36.37,6.07-10.43,6.29-23.16,9.97-34.65s13.78-23.06,25.65-20.9c13.06,2.37,17.69,18.7,17.85,31.98s-.56,28.7,9.56,37.29c3.5,2.97,8.06,4.8,10.77,8.51,2.46,3.38,2.96,7.76,3.39,11.92,2.36,23.16,4.22,48.49-8.82,67.77-2.98,4.41-6.77,8.57-7.81,13.8-2.56,12.93,12.69,24.23,10.6,37.25-1.78,11.04-14.56,16.19-21.27,25.14-7.62,10.16-6.97,24.81-14.7,34.88-11.52,15.01-44.23,18.07-59.33,6.7C1225.25,992.89,1216.77,960.23,1207.88,941.84Z"/>
        <g id="Group_147" data-name="Group 147">
          <path id="Path_240" data-name="Path 240" class="cls-2" d="M1261.6,1014.57a1.951,1.951,0,0,1-.23-.02,1.42,1.42,0,0,1-1.16-1.62l33.89-205.11a1.365,1.365,0,0,1,1.62-1.16,1.42,1.42,0,0,1,1.16,1.62l-33.89,205.11A1.422,1.422,0,0,1,1261.6,1014.57Z"/>
        </g>
        <g id="Group_148" data-name="Group 148">
          <path id="Path_241" data-name="Path 241" class="cls-2" d="M1285.2,880.04a1.4,1.4,0,0,1-1.07-2.31l33.51-39.33a1.4,1.4,0,0,1,2.14,1.82l-33.51,39.33A1.433,1.433,0,0,1,1285.2,880.04Z"/>
        </g>
        <g id="Group_149" data-name="Group 149">
          <path id="Path_242" data-name="Path 242" class="cls-2" d="M1271.17,956.64a1.41,1.41,0,0,1-1.25-.76l-19.66-38.26a1.409,1.409,0,0,1,2.51-1.28l19.66,38.26a1.407,1.407,0,0,1-.61,1.89A1.506,1.506,0,0,1,1271.17,956.64Z"/>
        </g>
      </g>
      <g id="Plant_3_">
        <path id="Path_243" data-name="Path 243" class="cls-5" d="M1372.71,970.79c5.08-6.49,15.2-10.62,14.66-18.84-.46-6.98-9.1-12.29-7.41-19.08,1.6-6.39,10.33-7.03,16.88-6.26,1.29-4.42.32-9.12-.13-13.7s-.19-9.68,2.94-13.06,9.93-3.2,11.39,1.16q3.48-9.825,6.97-19.64c.95-2.69,2.34-5.77,5.13-6.35,4.07-.85,6.82,4.51,6.18,8.62s-3.05,7.92-2.9,12.08a10.38,10.38,0,0,0,10.5,9.61c-5.43,4.23-11.43,11.3-7.64,17.04,1.91,2.89,6.17,5.29,4.91,8.51s-7.02,2.92-7.73,6.3c-.96,4.5,8.61,6.59,6.81,10.83-5.9-.93-11,6.9-7.76,11.92,3.56,5.52,12.29,4.7,17.04,9.24,3.41,3.26,3.94,8.68,2.54,13.18-5.5,17.7-26.2,38.97-45.62,32.02C1384.04,1008.83,1357.94,989.64,1372.71,970.79Z"/>
        <g id="Group_150" data-name="Group 150">
          <path id="Path_244" data-name="Path 244" class="cls-2" d="M1404.87,1016.99h-.11a1.417,1.417,0,0,1-1.3-1.51l7.29-97.27a1.361,1.361,0,0,1,1.51-1.3,1.417,1.417,0,0,1,1.3,1.51l-7.29,97.27A1.407,1.407,0,0,1,1404.87,1016.99Z"/>
        </g>
        <g id="Group_151" data-name="Group 151">
          <path id="Path_245" data-name="Path 245" class="cls-2" d="M1407.93,976.15a1.373,1.373,0,0,1-.89-.32l-17.89-14.58a1.407,1.407,0,0,1,1.78-2.18l17.89,14.58a1.41,1.41,0,0,1-.89,2.5Z"/>
        </g>
        <g id="Group_152" data-name="Group 152">
          <path id="Path_246" data-name="Path 246" class="cls-2" d="M1407.3,1003.07a1.393,1.393,0,0,1-1.09-.52,1.412,1.412,0,0,1,.21-1.98l28.26-22.82a1.408,1.408,0,0,1,1.77,2.19l-28.26,22.82A1.439,1.439,0,0,1,1407.3,1003.07Z"/>
        </g>
      </g>
      <g id="Plant_4_">
        <path id="Path_247" data-name="Path 247" class="cls-5" d="M455.75,806.35c-1.87-6.51-7.72-11.96-12.07-17.82s-7.17-13.18-2.78-19.01c2.05-2.71,5.41-4.74,8.24-7.06,12.92-10.59,13.64-26.5,9.55-40.36s-12.22-27.05-14.68-41.12c-2.27-13.03,2.43-28.52,18.63-34.26,11.89-4.21,27.09-1.47,36.46,5.33a28.973,28.973,0,0,1,12.29,26.57c-.39,3.85-1.38,8.06,1.48,11.31,5.64,6.43,20.34,3.52,28.36,8.42,6.86,4.19,5.86,12.07,2.97,18.25s-7.11,12.64-4.71,18.93c2.97,7.76,15.29,12.61,16.54,20.62.51,3.28-.99,6.65,0,9.87,2.77,9.07,23.45,13.79,19.13,22.54-3.35,6.79-18.68,5.96-23.41,12.3-5.03,6.73,6.08,14.51,4.69,22.11-.47,2.59-2.38,4.9-4.24,7.13q-19,22.755-38.02,45.5a41.385,41.385,0,0,1-7.78,7.75c-19.46,13.75-49.09,4.9-52.4-12.76-1.58-8.41-3.65-18.34-4.27-26.85C448.83,831.12,459.34,818.86,455.75,806.35Z"/>
        <g id="Group_153" data-name="Group 153">
          <rect id="Rectangle_4" data-name="Rectangle 4" class="cls-2" width="2.81" height="268.65" transform="matrix(0.998, -0.06, 0.06, 0.998, 493.971, 741.595)"/>
        </g>
        <g id="Group_154" data-name="Group 154">
          <rect id="Rectangle_5" data-name="Rectangle 5" class="cls-2" width="60.74" height="2.81" transform="translate(499.032 818.782) rotate(-50.128)"/>
        </g>
        <g id="Group_155" data-name="Group 155">
          <rect id="Rectangle_6" data-name="Rectangle 6" class="cls-2" width="2.81" height="46.83" transform="matrix(0.668, -0.744, 0.744, 0.668, 467.668, 845.361)"/>
        </g>
      </g>
      <path id="Plant_5_" class="cls-6" d="M343.65,996.75c-3.54-4.19-6.58-9.03-7.37-14.45a5.132,5.132,0,0,1,.58-3.82,4.764,4.764,0,0,1,2.96-1.59c7.94-1.7,15.39,4.12,21.13,9.87a202.094,202.094,0,0,1,26.92,33.47c-4.64-7.22-7.08-21.07-5.98-29.56a1.338,1.338,0,0,1,.37-.91,1.2,1.2,0,0,1,.98-.14c2.44.47,3.98,2.84,5.15,5.04a111.936,111.936,0,0,1,8.88,22.29c-1.32-4.79,2.59-10.56,6.13-13.42,6.34-5.1,4.99,2.02,3.61,6.2-1.35,4.1-10.31,20.16-16.7,16.57-1.17-.66-1.46-4.24-2.42-5.4-1.67-2-4-2.66-6.4-3.4-6.44-2-13.15-2.83-19.22-5.97A61.592,61.592,0,0,1,343.65,996.75Z"/>
      <path id="Plant_6_" class="cls-1" d="M1104.86,1009.54c.81-8.26.79-15.92,3.5-23.98.91-2.72,2.21-5.62,4.79-6.86a1.883,1.883,0,0,1,1.56-.18,2.114,2.114,0,0,1,.92,1.05c14.04,26.9-23.64,42.03-40.83,21.8a8.129,8.129,0,0,1-2.21-4.32c-.27-3,2.59-5.59,5.58-5.94s5.92,1.01,8.39,2.72c6.54,4.53,10.89,11.51,15.05,18.28a51.009,51.009,0,0,1-8.44-29.73c.05-1.57.58-3.58,2.15-3.71a3.1,3.1,0,0,1,2.04.83c4.28,3.29,6.69,8.56,7.59,13.89S1105.38,1004.16,1104.86,1009.54Z"/>
      <path id="Plant_7_" class="cls-5" d="M521.33,963.09a2.532,2.532,0,0,1,1.15.32c1.22.66,1.67,2.16,1.96,3.52,2.65,12.43,2.58,9.38,1.26,25.69,2.78-10.18,1.68-8.4,6.88-17.59a12.193,12.193,0,0,1,3.88-4.69c11.35-6.95.36,23.84-1.56,27.37-7.12,13.1-20.97,16.34-34.41,11.52-11.79-4.23-23.05-13.41-27.27-25.42-.38-1.08-.66-2.44.15-3.26a3.12,3.12,0,0,1,2.22-.65c7.12-.01,13.79,3.61,19.24,8.19s9.95,10.17,15.07,15.11c3.63,3.5,11.64,3.3,16.64,3.9,8.51,1.03,11.87-2.27,19.26-6.62a10.387,10.387,0,0,1,5.24-1.79c1.87.02,3.85,1.19,4.2,3.03a5.325,5.325,0,0,1-.65,3.22c-6.05,12.78-22.54,11.06-29.81.86-6.93-9.73-11.4-25.93-8.08-37.6C517.37,965.84,519.23,963.05,521.33,963.09Z"/>
      <path id="Plant_8_" class="cls-6" d="M1491.41,983.09a1.757,1.757,0,0,1,.8.22,3.416,3.416,0,0,1,1.36,2.46c1.85,8.68,1.8,6.55.88,17.93,1.94-7.11,1.17-5.86,4.8-12.28a8.522,8.522,0,0,1,2.71-3.28c7.92-4.85.25,16.63-1.09,19.1-4.97,9.14-14.64,11.41-24.01,8.04-8.23-2.95-16.09-9.36-19.03-17.74a2.2,2.2,0,0,1,.11-2.28,2.149,2.149,0,0,1,1.55-.45c4.97-.01,9.63,2.52,13.42,5.72s6.94,7.1,10.52,10.55c2.53,2.44,8.12,2.3,11.61,2.72,5.94.72,8.28-1.59,13.44-4.62a7.205,7.205,0,0,1,3.66-1.25,2.95,2.95,0,0,1,2.93,2.11,3.7,3.7,0,0,1-.45,2.24c-4.22,8.92-15.73,7.72-20.8.6-4.84-6.79-7.95-18.1-5.64-26.24C1488.65,985.01,1489.95,983.06,1491.41,983.09Z"/>
    </g>
    <g id="Characters">
      <g id="Man">
        <g id="Bag">
          <path id="Path_248" data-name="Path 248" d="M719.84,505.98l114.9-128.3L818.5,415.59l-91.9,90.39Z"/>
          <path id="Path_249" data-name="Path 249" d="M783.24,636.84l-76.97-29.62a26.245,26.245,0,0,1-15.02-33.82l22.34-58.06a26.245,26.245,0,0,1,33.82-15.02l76.97,29.62a26.245,26.245,0,0,1,15.02,33.82l-22.34,58.06A26.241,26.241,0,0,1,783.24,636.84Z"/>
        </g>
        <path id="Phone" class="cls-7" d="M1012.77,422.91l45.38-76.32s17.7-10.09,13.91,3.49-43.84,79.4-43.84,79.4Z"/>
        <g id="Head">
          <path id="Neck" class="cls-8" d="M884.43,361.79l-13.52,43.42-37.83,4.55s28.41-25.06,31.74-52.95S884.43,361.79,884.43,361.79Z"/>
          <path id="Face" class="cls-9" d="M938.06,279.52s4.99,11.85-10.07,40.48-33.54,51.66-42.26,47.49c-24.12-11.52-28.48-31.73-33.39-49.38-6.01-21.64,27.12-62.3,27.12-62.3l23.03-5.79Z"/>
          <path id="Hair" d="M858.76,292.86a320.416,320.416,0,0,0-2.47,38.92,2.941,2.941,0,0,1-.58,2.07c-1.26,1.49-10.75-14.41-11.46-15.64-4.66-8.02-11.78-17.82-8.96-27.53.79-2.71,2.21-5.26,2.46-8.06.46-5.28-3.61-8.63-4.55-13.37-.88-4.4.3-9.42,1.66-13.58,2.59-7.9,7.85-16.55,15.07-21.02,5.69-3.52,10.51-1.8,16.2-3.78,3-1.04,4.35-4.42,6.37-6.87,3.11-3.76,8.17-5.48,13.05-5.61,6.02-.17,14.71,1.03,19.84,4.51,6.53,4.43,7.18,16.14,13.35,19.41a9.125,9.125,0,0,0,3.47.8c11.51,1.12,22.43.6,31.65,8.48,14.56,12.44,4.58,56.44-16.9,43.99-2.46-1.43-4.55-3.41-6.9-5.02-11.3-7.77-25.65,5.25-33.26-14.4-1.36-3.51-24.85-4.76-25.16,4.83C871.25,293.51,858.76,292.86,858.76,292.86Z"/>
          <path id="Ear" class="cls-9" d="M863.99,292.57s-6.68-12.95-9.75,3.45,4.54,21.87,4.54,21.87Z"/>
        </g>
        <g id="Leg_2_">
          <path id="Skin_1_" class="cls-8" d="M693.44,899.69,659.16,947.5,642,937.68l38.73-47.76C680.73,889.93,690.87,893.94,693.44,899.69Z"/>
          <path id="Shoe_1_" class="cls-10" d="M701.91,1006.73c-.86,1.02-7.45-.53-8.45-.68-10.32-1.53-26.26-3.36-34.15-10.76-7.68-7.21-11.6-18.09-18.07-26.32-4.56-5.79-10.91-9.89-16.68-14.41-6.36-4.99,13.08-34.58,20.73-28.04,6.19,5.3.92,16.33,18.69,17.68,15.22,1.16,2.19,21.04,17.56,36.66C695.12,994.68,711.28,995.6,701.91,1006.73Z"/>
          <path id="Leg_3_" class="cls-11" d="M799.82,701.6c-11.63,41.47-4.87,42.15-33.51,74.5-13.97,15.78-91.33,80.94-105.73,96.36-20.54,21.99.88,32.1,16.12,38.54,9.97,4.21,15.92,26.12,31.07,9.99,1.5-1.59,27.58-35.26,35.41-50.01,8.96-16.89,60.35-63.09,78.06-79.33,42.16-38.65,20.85-57.22,46.65-107.82,9.82-19.27,7.64-39.78,10.55-61.94,1.78-13.56-18.91-77.03-47.69-65.81-17.91,6.99-11.07,43.32-10.31,57.65.53,9.91,1.96,20.84-.5,30.43C814.89,663.84,805.32,682.01,799.82,701.6Z"/>
        </g>
        <g id="Leg">
          <path id="Skin" class="cls-9" d="M890.71,920.91l13.01,59.19-19.34,6.38-9.91-62.57C874.48,923.92,884.53,918.91,890.71,920.91Z"/>
          <path id="Shoe" class="cls-5" d="M982.92,1003.43s-14.47,4.94-42.21,7-58.7,3.09-64.32-1.03-9.25-39.11,0-39.11,12.84,13.38,29.15,1.44c13.97-10.23,25.13,9.06,49.45,14.2S989.15,993.13,982.92,1003.43Z"/>
          <path id="Leg_1_" class="cls-4" d="M939.63,943.96c-.93-2.17-3.37-3.79-5.49-5.48-19.37-15.44-9.26-38.88-11.54-59.57-7.11-64.46,5.13-102.17-19.11-168.02-16.5-44.81-20.95-74.38-24.94-124.16-1.39-17.28,32.84-39.61,6.73-34.67-12.37,2.34-24.58,1.88-36.91-.28-6.49-1.14.13-3.25-6.49-1.14-22.55,7.2-39.33,47.57-39.61,63.12-.63,34.86,26.13,57.74,33.44,88.23,12.84,53.55,33.02,91.43,27.75,135.49-2.58,21.59-5.58,43.12-8.46,64.67-1.68,12.57-12.19,40.11-5.14,51.49,9.68,15.62,52.81,2.38,67.22,2.03C927.91,955.4,942.79,951.33,939.63,943.96Z"/>
        </g>
        <path id="Body_1_" class="cls-12" d="M890.46,469.54c-6.54-26.54.56-71.18-18.15-90.87a21.679,21.679,0,0,0-6.49-5.16c-23.51-10.59-37.69,8.71-47.8,25.44-10.12,16.75-9.89,34.87-14.83,53.65-5.62,21.35-4.49,43.55-4.89,65.59-.25,13.42,1.39,26.75.63,40.19a162.3,162.3,0,0,1-4,27.84c-1.42,6.08-9.37,18.15-7.05,24.34,1.84,4.9,10.26,3.05,14.4,3.19,16.01.53,31.7-4.22,45.94-11.26,13.01-6.43,26.76-6.18,41.77-7.42,7.45-.62,17.11-7.04,13.74-20.58-7.99-32.09-5.66-60.2-8.96-82.86C893.69,484.31,892.27,476.9,890.46,469.54Z"/>
        <path id="Arm" class="cls-9" d="M848.74,412.97s33.47,76.37,49.75,86.66,30.38,8.82,59.08-9.97a539.029,539.029,0,0,0,57.25-43.79c2.73-2.56,26.27-5.36,28.33-15.52s11.01-43.03,2.39-36.58-16.05,27.73-23.23,28.1,2.99-21.98-3.54-18.38-6.99,9.52-9.34,14.55.75,10.7-13.52,23.2-60.94,45.13-74.37,42.7-62.63-74.81-64.64-80.35S848.74,412.97,848.74,412.97Z"/>
        <path id="Body" class="cls-1" d="M894.87,438.11s-20.34-60.88-44.52-48.61,11.69,76.96,11.69,76.96l39.28-20.66Z"/>
      </g>
    </g>
    <g id="UI">
      <g id="Chat">
        <path id="Path_250" data-name="Path 250" class="cls-13" d="M1075.32,232.96c2.48,3.99,7.03,6.61,10.89,4.76-4.37,5.55-3.13,21.18-4.29,28.67,22.56-16.8,45.14-33.96,71.72-32.89,4.3.17,9.05.43,12.41-2.77a16.923,16.923,0,0,0,3.57-5.81c5.89-14.22,4.95-30.94,3.88-46.75-.19-2.74-.57-5.89-2.53-7.34a6.241,6.241,0,0,0-3.82-.9c-22.68-.14-44.96,8.01-67.68,6.16-7.22-.59-20.55-8.46-27.02-3.73-5.73,4.2-5.06,15.69-4.64,22.46C1068.51,206.18,1069.5,223.57,1075.32,232.96Z"/>
        <g id="Group_156" data-name="Group 156">
          <path id="Path_251" data-name="Path 251" class="cls-14" d="M1167.4,279.46l.78-4.18a62.035,62.035,0,0,0,.6-7.16c.24-4.87.5-10.22,2.01-14.18a12.967,12.967,0,0,1-8.87-5.22h0c-6.07-8.2-7.14-22.85-7.84-32.54l-.03-.4c-.42-5.74-1.2-16.42,5.53-20.56,4.97-3.06,12.74-.92,19.59.97a49.425,49.425,0,0,0,8.54,1.88c12.23.83,24.63-.84,36.63-2.45,10.08-1.36,20.35-2.83,30.93-2.71a8.793,8.793,0,0,1,4.79,1.03c2.94,1.82,3.25,5.57,3.41,7.59,1,12.22,2.23,27.44-4.06,40.16a15.811,15.811,0,0,1-4.08,5.5c-3.83,3.07-8.92,2.9-13.39,2.74-25.74-.84-48.21,13.09-69.83,26.6Zm14.08-32.77-5.81,6.19c-2.53,2.7-2.88,9.76-3.16,15.43-.06,1.27-.12,2.5-.2,3.67,21.42-13.36,43.59-26.66,69.48-25.8,4.28.14,8.42.28,11.18-1.92a12.476,12.476,0,0,0,3.06-4.23c5.83-11.79,4.64-26.43,3.69-38.2-.16-2.02-.48-3.98-1.65-4.71a5.859,5.859,0,0,0-2.84-.47c-10.23-.05-20.45,1.34-30.41,2.68-12.18,1.64-24.78,3.33-37.39,2.48a52.416,52.416,0,0,1-9.28-2.01c-6.11-1.68-13.05-3.6-16.63-1.39-4.79,2.94-4.12,12.14-3.75,17.09l.03.4c.67,9.26,1.69,23.26,7.12,30.59h0c1.9,2.56,5.58,4.61,8.69,3.36Z"/>
        </g>
        <path id="Path_252" data-name="Path 252" class="cls-15" d="M1106.93,278.79c2.48,3.34,7.03,5.54,10.89,3.99-4.37,4.65-3.13,17.75-4.29,24.02,22.56-14.08,45.14-28.46,71.72-27.57,4.3.14,9.05.36,12.41-2.32a13.983,13.983,0,0,0,3.57-4.87c5.89-11.92,4.95-25.93,3.88-39.18-.19-2.3-.57-4.93-2.53-6.15a7.288,7.288,0,0,0-3.82-.75c-22.68-.11-44.96,6.72-67.68,5.16-7.22-.49-20.55-7.09-27.02-3.13-5.73,3.52-5.06,13.15-4.64,18.83C1100.12,256.35,1101.11,270.92,1106.93,278.79Z"/>
        <path id="Path_254" data-name="Path 254" class="cls-16" d="M1168.44,300.49c3.03-1.6,6.64-1.51,10.07-1.38q34.4,1.26,68.79,2.53a9.228,9.228,0,0,1,4.14.8c2.25,1.22,3.06,4,3.61,6.5a195.081,195.081,0,0,1,3.77,23.9c.22,2.37.38,4.89-.68,7.03-2,4.01-7.21,4.92-11.67,5.35-17.59,1.68-35.25,3.36-52.9,2.49-7.66-.38-15.37-1.23-22.99-.31-7.76.94-26.04,10.11-33.21,6.46-5.19-2.64.27-5.54,3.88-8.81,6.71-6.06,13.11-11.6,16.61-20.21C1160.92,317.28,1160.22,304.82,1168.44,300.49Z"/>
        <path id="Path_255" data-name="Path 255" class="cls-17" d="M1112.06,381.68c5.6,1.61,10.61,4.82,16.14,6.65,7.2,2.37,14.95,2.29,22.53,2.19q20.475-.27,40.94-.55c3.82-.05,8.14.11,10.68,2.95,1.66,1.86,2.15,4.46,2.57,6.92q1.98,11.49,3.95,22.97c.7,4.06,1.3,8.61-1.09,11.97-2.68,3.77-7.92,4.42-12.53,4.74q-29.445,2.025-58.88,4.06c-1.85.13-3.83.23-5.44-.69a9.01,9.01,0,0,1-3.17-3.94,76.886,76.886,0,0,1-7.05-20.35c-.99-5.08-1.51-10.4-3.99-14.94-3.87-7.07-1.58-7.39-5.25-13.64C1106.14,380.93,1106.58,380.1,1112.06,381.68Z"/>
        <path id="Path_256" data-name="Path 256" class="cls-18" d="M1283.03,263.53c3.16.91,6,2.73,9.13,3.76,4.07,1.34,8.45,1.3,12.74,1.24q11.58-.15,23.15-.31c2.16-.03,4.6.06,6.04,1.67a7.639,7.639,0,0,1,1.46,3.91q1.125,6.495,2.24,12.99c.4,2.3.73,4.87-.62,6.77-1.51,2.13-4.48,2.5-7.09,2.68q-16.65,1.155-33.3,2.3a5.44,5.44,0,0,1-3.08-.39,5.061,5.061,0,0,1-1.79-2.23,43.423,43.423,0,0,1-3.99-11.51c-.56-2.88-.85-5.88-2.26-8.45-2.19-4-.9-4.18-2.97-7.71C1279.68,263.1,1279.93,262.64,1283.03,263.53Z"/>
        <circle id="Ellipse_41" data-name="Ellipse 41" class="cls-15" cx="5.47" cy="5.47" r="5.47" transform="translate(1181.17 319.96)"/>
        <circle id="Ellipse_42" data-name="Ellipse 42" class="cls-15" cx="5.47" cy="5.47" r="5.47" transform="translate(1204.03 319.96)"/>
        <circle id="Ellipse_43" data-name="Ellipse 43" class="cls-15" cx="5.47" cy="5.47" r="5.47" transform="translate(1227.94 319.96)"/>
        <circle id="Ellipse_44" data-name="Ellipse 44" class="cls-2" cx="3.6" cy="3.6" r="3.6" transform="translate(1295.68 280.88)"/>
        <circle id="Ellipse_45" data-name="Ellipse 45" class="cls-2" cx="3.6" cy="3.6" r="3.6" transform="translate(1310.74 280.88)"/>
        <circle id="Ellipse_46" data-name="Ellipse 46" class="cls-2" cx="3.6" cy="3.6" r="3.6" transform="translate(1326.48 280.88)"/>
        <path id="Path_257" data-name="Path 257" class="cls-2" d="M1155.6,199.89h-69.36a2.049,2.049,0,0,1-2.04-2.04V190.3a2.049,2.049,0,0,1,2.04-2.04h69.36a2.049,2.049,0,0,1,2.04,2.04v7.55A2.049,2.049,0,0,1,1155.6,199.89Z"/>
        <path id="Path_258" data-name="Path 258" class="cls-2" d="M1155.6,219h-39.7a2.049,2.049,0,0,1-2.04-2.04v-7.55a2.049,2.049,0,0,1,2.04-2.04h39.7a2.049,2.049,0,0,1,2.04,2.04v7.55A2.049,2.049,0,0,1,1155.6,219Z"/>
        <g id="Group_157" data-name="Group 157">
          <path id="Path_259" data-name="Path 259" class="cls-2" d="M1167.97,243.21h-53.55a2.049,2.049,0,0,1-2.04-2.04v-1.04a2.049,2.049,0,0,1,2.04-2.04h53.55a2.049,2.049,0,0,1,2.04,2.04v1.04A2.049,2.049,0,0,1,1167.97,243.21Z"/>
          <path id="Path_260" data-name="Path 260" class="cls-2" d="M1190.64,256.21h-76.22a2.049,2.049,0,0,1-2.04-2.04v-.98a2.049,2.049,0,0,1,2.04-2.04h76.22a2.049,2.049,0,0,1,2.04,2.04v.98A2.036,2.036,0,0,1,1190.64,256.21Z"/>
          <path id="Path_261" data-name="Path 261" class="cls-2" d="M1190.64,268.58h-76.22a2.049,2.049,0,0,1-2.04-2.04v-.98a2.049,2.049,0,0,1,2.04-2.04h76.22a2.049,2.049,0,0,1,2.04,2.04v.98A2.036,2.036,0,0,1,1190.64,268.58Z"/>
        </g>
        <path id="Path_262" data-name="Path 262" class="cls-2" d="M1174.29,431.47h-16.45a7.686,7.686,0,0,1-7.66-7.66V407.36a7.686,7.686,0,0,1,7.66-7.66h16.45a7.686,7.686,0,0,1,7.66,7.66v16.45A7.687,7.687,0,0,1,1174.29,431.47Z"/>
        <path id="Path_263" data-name="Path 263" class="cls-15" d="M1167.31,417.55h-2.5a5.2,5.2,0,0,1-5.19-5.19v-2.5a5.2,5.2,0,0,1,5.19-5.19h2.5a5.2,5.2,0,0,1,5.19,5.19v2.5A5.2,5.2,0,0,1,1167.31,417.55Z"/>
        <path id="Path_264" data-name="Path 264" class="cls-15" d="M1166.06,417.64a8.467,8.467,0,0,0-8.44,8.44h16.87A8.453,8.453,0,0,0,1166.06,417.64Z"/>
      </g>
    </g>
  </g>
</svg>
