<svg xmlns="http://www.w3.org/2000/svg" width="103.424" height="92.607" viewBox="0 0 103.424 92.607">
  <path id="Icon_map-jewelry-store" data-name="Icon map-jewelry-store" d="M105.888,34.531l-.031-.243a3.054,3.054,0,0,0-.305-.871L90.311,8.885S88.367,6.48,87.905,6.48H22.961L3.429,32.585l-.231.241-.031.113a4.281,4.281,0,0,0-.4.842l-.079.233A3.788,3.788,0,0,0,2.715,36.3l.091.262a4.054,4.054,0,0,0,.452.847l47.22,59.814.1.137a4.086,4.086,0,0,0,.9.842l.274.171a4.861,4.861,0,0,0,.96.452l.267.089a4.639,4.639,0,0,0,2.562-.014l.32-.113a4.682,4.682,0,0,0,.933-.457L57,98.2a3.744,3.744,0,0,0,.815-.755L105.1,37.565a4.2,4.2,0,0,0,.794-1.9l.036-.31.019-.245-.058-.577ZM80.535,32.939l6.73-12.178,6.725,12.178ZM76.5,40.155H92.466L65.853,73.866ZM72.55,29.288,62.83,16.1H79.835ZM41.415,40.155H67.053L54.23,80.751Zm2.542-7.216L54.23,19,64.5,32.939H43.957ZM36.722,28.2,32.267,16.1H45.634Zm5.891,45.673L16,40.155H31.966ZM24.56,20.845l4.457,12.094H15.648L24.56,20.845Z" transform="translate(-2.522 -6.48)" fill="#008e89"/>
</svg>
